<svg width="102" height="66" viewBox="0 0 102 66" fill="none" xmlns="http://www.w3.org/2000/svg">
<path fill-rule="evenodd" clip-rule="evenodd" d="M14.7301 60.9899C14.7176 61.0142 14.6933 61.063 14.6813 61.0998C13.364 63.5883 10.7775 65.2836 7.82546 65.2836C3.54372 65.2836 0.0307617 61.697 0.0307617 57.269C0.0307617 52.8654 3.54372 49.2544 7.82546 49.2544C10.7899 49.2544 13.3884 50.9865 14.6933 53.5118C14.7301 53.5606 14.742 53.585 14.7788 53.6581C14.7913 53.6705 12.2903 55.4757 12.266 55.4394C12.2535 55.3907 12.2416 55.3539 12.2172 55.3295C11.4971 53.5362 9.78991 52.3407 7.82546 52.3776C5.20268 52.4019 3.04341 54.5731 3.04341 57.269C3.04341 59.9893 5.20268 62.1854 7.82546 62.1854C9.72869 62.1854 11.3877 61.0142 12.1435 59.3552C12.1804 59.2941 12.1929 59.2453 12.2172 59.1966L14.7301 60.9899Z" fill="#13101E"/>
<path fill-rule="evenodd" clip-rule="evenodd" d="M17.9625 49.4014H20.9633V55.0005H28.8441V49.4014H31.8692V64.9789H28.8441V58.1355H20.9633V64.9789H17.9625V49.4014Z" fill="#13101E"/>
<path fill-rule="evenodd" clip-rule="evenodd" d="M74.2234 64.9789V49.4014H85.1167V52.5483H77.2607V55.6589H84.519V58.7696H77.2607V61.8802H86.2266V64.9789H74.2234Z" fill="#13101E"/>
<path fill-rule="evenodd" clip-rule="evenodd" d="M90.4841 64.9789V49.4014H93.5337V61.8802H102V64.9789H90.4841Z" fill="#13101E"/>
<path fill-rule="evenodd" clip-rule="evenodd" d="M57.8526 64.9789H57.7552H54.8031V49.4014H55.0224H59.0357L65.7085 58.7696V49.4014H68.7337V64.9789H66.3183L57.8526 53.2316V64.9789Z" fill="#13101E"/>
<path fill-rule="evenodd" clip-rule="evenodd" d="M43.3237 52.5483L40.6646 58.7696H46.1051L43.3237 52.5483ZM39.298 61.8802L37.9075 64.9789H34.2966L41.2012 49.4014H45.4218L52.3751 64.9789H48.7642L47.3618 61.8802H39.298Z" fill="#13101E"/>
<path fill-rule="evenodd" clip-rule="evenodd" d="M52.5823 43.4015C49.3104 45.2933 45.3963 46.4178 41.2259 46.4178C32.6932 46.4178 25.2195 41.7659 21.1774 34.8682C21.1774 34.8362 21.1461 34.8362 21.1461 34.8042C21.1461 34.7721 21.1133 34.7721 21.1133 34.7401L24.3853 33.0405L27.6572 31.3713C27.69 31.4049 27.7228 31.4354 27.754 31.501C30.5447 36.0232 35.5493 39.0395 41.2259 39.0395C43.0557 39.0395 44.8197 38.7191 46.3916 38.2049C42.8947 34.1954 40.7775 28.9348 40.7775 23.1921C40.7775 17.4829 42.8634 12.2223 46.3275 8.17925C44.7556 7.63458 43.0229 7.34622 41.2259 7.34622C35.6133 7.34622 30.4165 10.361 27.5618 15.2051C27.529 15.2371 27.529 15.2707 27.529 15.3012L20.9539 11.9019C20.9851 11.8379 21.0179 11.7738 21.0492 11.7402C25.0601 4.71592 32.6291 0 41.2259 0C45.3963 0 49.3104 1.12291 52.5823 3.04834C55.8541 1.12291 59.7683 0 63.9371 0C72.5341 0 80.1046 4.71592 84.1141 11.7402C84.1462 11.7738 84.1782 11.8379 84.2102 11.9019L77.6345 15.3012C77.6345 15.2707 77.6345 15.2371 77.6025 15.2051C74.7479 10.361 69.5514 7.34622 63.9371 7.34622C62.1417 7.34622 60.4089 7.63458 58.837 8.17925C62.3011 12.2223 64.387 17.4829 64.387 23.1921C64.387 28.9348 62.2698 34.1954 58.7729 38.2049C60.3449 38.7191 62.1089 39.0395 63.9371 39.0395C69.6154 39.0395 74.6197 36.0232 77.4102 31.501C77.4423 31.4354 77.4743 31.4049 77.5063 31.3713L80.7774 33.0405L84.05 34.7401C84.05 34.7721 84.018 34.7721 84.018 34.8042C84.018 34.8362 83.986 34.8362 83.986 34.8682C79.9444 41.7659 72.47 46.4178 63.9371 46.4178C59.7683 46.4178 55.8541 45.2933 52.5823 43.4015ZM52.5823 34.1954C49.887 31.3408 48.1556 27.4595 48.1556 23.1921C48.1556 18.9903 49.7916 15.173 52.5823 12.3185C55.3729 15.173 57.0089 18.9903 57.0089 23.1921C57.0089 27.4595 55.276 31.3408 52.5823 34.1954Z" fill="#13101E"/>
</svg>
