<svg width="109" height="44" viewBox="0 0 109 44" fill="none" xmlns="http://www.w3.org/2000/svg">
<path fill-rule="evenodd" clip-rule="evenodd" d="M0 1.51211H11.5577C14.3251 1.51211 17.0416 1.71687 19.7323 2.15242C22.3972 2.56287 24.9085 3.74147 27.2664 5.63753C29.4702 7.5085 31.187 9.89195 32.4172 12.7874C33.673 15.6829 34.3649 18.6557 34.4674 21.7309C34.5187 21.9359 34.5443 22.1666 34.5443 22.397C34.5443 22.6022 34.5443 22.8328 34.5443 23.0635C34.5443 23.1405 34.5443 23.2174 34.5443 23.2943C34.5443 23.3455 34.5443 23.4222 34.5443 23.5249C34.4674 26.7279 33.801 29.803 32.5453 32.8012C31.3153 35.7745 29.4959 38.2088 27.0869 40.13C24.9603 41.6939 22.7049 42.6924 20.2706 43.1545C17.8618 43.6414 15.3761 43.8977 12.8648 44C12.4548 44 12.019 44 11.5835 44C11.1477 44 10.7122 44 10.251 44H0V1.51211ZM8.45677 36.3374C8.73869 36.3374 9.04641 36.3374 9.37947 36.3634C9.71252 36.3883 10.0716 36.3883 10.4302 36.3883C10.5585 36.3883 10.6608 36.3883 10.7891 36.3883C10.8913 36.3883 10.9938 36.3883 11.1221 36.3883C11.3783 36.4406 11.6091 36.4655 11.8654 36.4655C12.1215 36.4655 12.3523 36.4655 12.5571 36.4655C12.9671 36.4655 13.3771 36.4406 13.7873 36.4143C14.1973 36.4143 14.6072 36.3632 15.043 36.3372C16.273 36.2351 17.5029 36.0046 18.7076 35.6711C19.8864 35.3124 20.9369 34.7746 21.8083 34.0574C23.1663 32.9044 24.1915 31.3407 24.8834 29.3932C25.5753 27.4458 25.9339 25.421 25.9597 23.3197C25.9597 23.2683 25.9597 23.2174 25.9597 23.166C25.9597 23.0891 25.9597 23.0122 25.9597 22.9097C25.9597 22.8328 25.9597 22.7558 25.9597 22.6791C25.9597 22.6278 25.9597 22.5508 25.9597 22.4483C25.9339 20.3726 25.5753 18.348 24.9089 16.4261C24.2428 14.4785 23.2432 12.8897 21.9361 11.6597C20.9881 10.7631 19.8862 10.1476 18.6306 9.81455C17.4007 9.4815 16.1191 9.30207 14.7864 9.2507C14.5047 9.19957 14.197 9.17378 13.9151 9.17378C13.6334 9.17378 13.3257 9.17378 13.0438 9.17378H8.45677V36.3374ZM58.3507 43.3076L55.7627 40.2583C54.6606 41.2842 53.3795 42.1297 51.9443 42.7698C50.5093 43.4359 49.023 43.8206 47.5365 43.9489C47.3826 43.9737 47.229 44 47.0751 44C46.9213 44 46.7676 44 46.614 44C46.2807 44 45.9732 43.974 45.6402 43.9489C45.3071 43.9228 44.9996 43.8717 44.6666 43.8468C44.0256 43.7185 43.3853 43.5393 42.7447 43.3079C42.1039 43.0775 41.5145 42.7961 40.9249 42.4375C39.8741 41.719 39.0544 40.7715 38.4136 39.6185C37.7731 38.4394 37.3886 37.2352 37.2603 36.0051C37.2348 35.8507 37.2348 35.6976 37.2348 35.5693C37.2348 35.441 37.2348 35.3127 37.2348 35.1846C37.2348 35.0826 37.2348 34.9803 37.2348 34.852C37.2603 34.7237 37.2603 34.5954 37.2603 34.4674C37.2603 34.4162 37.2861 34.3902 37.2861 34.3653C37.3115 34.313 37.3115 34.2882 37.3115 34.211C37.3115 34.1599 37.337 34.0827 37.337 33.9807C37.3628 33.9035 37.3628 33.8264 37.3628 33.7752C37.6959 31.9561 38.4645 30.4444 39.6947 29.2391C40.9246 28.035 42.2831 26.9842 43.7436 26.0364C42.8212 25.0628 42.0779 24.012 41.4632 22.8841C40.8482 21.7825 40.5405 20.6036 40.5405 19.4248C40.5405 19.1942 40.5405 18.9635 40.5916 18.7071C40.6172 18.4768 40.643 18.2202 40.6688 18.0154C40.7199 17.836 40.7455 17.6824 40.7966 17.5283C40.8479 17.3491 40.8991 17.1955 40.9246 17.0414C41.4374 15.427 42.4368 14.274 43.8975 13.5307C45.3585 12.7876 46.8957 12.4032 48.5614 12.4032C50.6372 12.4032 52.5335 12.9668 54.2506 14.0945C55.9674 15.1962 56.839 16.8619 56.839 19.0144V19.5526C56.7107 20.9111 56.1985 22.0895 55.3269 23.0635C54.4556 24.0371 53.5075 24.9085 52.5081 25.7029C52.2773 25.8312 52.0468 25.9595 51.8416 26.1387C51.6368 26.2923 51.4316 26.4462 51.2266 26.5742L56.4286 32.648C56.7107 32.3914 56.9671 32.1351 57.223 31.8785C57.4796 31.6219 57.7101 31.3667 57.9409 31.0841C58.4787 30.5723 58.9912 30.0333 59.5042 29.4953C60.0166 28.9312 60.5035 28.3934 60.9649 27.8293L64.4244 31.4947C64.0398 31.9045 63.63 32.314 63.2454 32.7238C62.8612 33.1347 62.4765 33.5442 62.0924 33.98C61.6566 34.3897 61.2468 34.7993 60.8622 35.2102C60.478 35.6199 60.0933 36.0295 59.7091 36.4404L65.3983 43.3074L58.3507 43.3076ZM43.59 36.9275C43.9231 37.3633 44.2566 37.7219 44.5641 38.0034C44.8969 38.3109 45.2302 38.5163 45.5888 38.6958C45.9221 38.8749 46.2296 39.0283 46.5626 39.1055C46.8957 39.1827 47.2032 39.2338 47.5362 39.2338C48.2284 39.2338 48.8687 39.0806 49.4581 38.8241C50.0478 38.5414 50.6114 38.2091 51.0983 37.8504C51.5338 37.543 52.0463 37.1072 52.5846 36.5431L46.7674 29.5989C46.6391 29.6749 46.5113 29.7781 46.3574 29.8543C46.2296 29.9315 46.1269 30.0335 46.0244 30.1109C45.4094 30.6487 44.82 31.2391 44.2817 31.9052C43.7181 32.5713 43.3337 33.2637 43.1029 33.9809C43.0515 34.1601 43.0004 34.3395 42.9746 34.5187C42.9234 34.6979 42.9234 34.9034 42.9234 35.0828C42.9234 35.4154 42.9746 35.7229 43.1026 36.0304C43.2307 36.3379 43.4108 36.6449 43.59 36.9275ZM48.2539 23.6018C48.3051 23.576 48.3309 23.5505 48.3567 23.5249C48.4078 23.4991 48.4331 23.4991 48.5101 23.448C48.5359 23.4222 48.587 23.3966 48.6128 23.3455C48.6384 23.3199 48.6639 23.3199 48.7153 23.3199C49.3558 22.8588 49.9453 22.3719 50.5091 21.885C51.0469 21.3722 51.406 20.7061 51.5852 19.9117V19.3225C51.5852 18.4768 51.2779 17.7849 50.6883 17.2724C50.1247 16.7597 49.4837 16.4522 48.792 16.3497C48.7406 16.3497 48.6637 16.3497 48.6128 16.3497C48.5359 16.3497 48.4845 16.3497 48.4078 16.3497C48.3822 16.3497 48.3309 16.3497 48.2797 16.3497C48.2539 16.3497 48.177 16.3497 48.1257 16.3497C47.6134 16.401 47.1009 16.6318 46.6393 17.0158C46.1782 17.3746 45.8963 17.9385 45.8452 18.6815C45.8452 18.7071 45.8196 18.7587 45.8196 18.8098C45.7938 18.8612 45.7938 18.9121 45.7938 18.989C45.7938 19.0146 45.7682 19.0404 45.7682 19.0913C45.7427 19.1427 45.7427 19.194 45.7427 19.2709C45.7427 19.9115 45.9219 20.5267 46.2805 21.0645C46.6391 21.6284 47.0238 22.1666 47.4337 22.6791C47.6129 22.8328 47.7412 22.9866 47.8695 23.1402C47.9978 23.2943 48.1257 23.448 48.2539 23.6018ZM108.706 20.8598V22.2691C108.706 26.1129 108.065 29.7007 106.784 33.0575C105.502 36.4143 103.043 39.1313 99.3267 41.2068C98.1481 41.9752 96.867 42.539 95.4318 42.9748C94.0224 43.3846 92.6128 43.692 91.2034 43.8712C90.6905 43.8973 90.2036 43.9484 89.7429 43.9733C89.2553 43.9733 88.7946 43.9993 88.3335 43.9993C88.0516 43.9993 87.7952 43.9993 87.5138 43.9993C87.2316 43.9993 86.9753 43.9733 86.6931 43.9221C83.2598 43.7178 79.9793 42.7691 76.7763 41.1031C73.5987 39.4632 71.01 37.2343 69.0628 34.4404C68.0892 32.9548 67.3204 31.34 66.7307 29.6491C66.1418 27.9571 65.7571 26.2405 65.5524 24.498C65.5268 24.1645 65.4752 23.7806 65.4496 23.4217C65.4496 23.0375 65.4241 22.6531 65.4241 22.2687C65.4241 18.1939 66.4748 14.3244 68.6017 10.6345C70.729 6.94419 73.7274 4.15099 77.5965 2.25469C78.4165 1.84424 79.2625 1.51165 80.1336 1.25506C81.0047 0.973367 81.8762 0.742576 82.7987 0.512017C83.6698 0.332823 84.5161 0.204528 85.3869 0.127598C86.2578 0.0257984 87.1033 0 87.9231 0C88.0002 0 88.1023 0 88.2308 0C88.3333 0 88.4356 0 88.538 0C91.8695 0.0769304 95.0983 0.871336 98.2508 2.33208C101.377 3.81816 104.093 5.86832 106.374 8.4821L100.224 12.9666C98.5323 11.3009 96.764 10.0198 94.8677 9.09708C92.9714 8.20018 90.9468 7.73883 88.82 7.73883C88.1283 7.73883 87.4106 7.79019 86.6926 7.86712C85.9501 7.96938 85.2066 8.09745 84.438 8.27711C81.2857 9.25071 78.928 11.0708 77.3139 13.7354C75.7251 16.4261 74.9307 19.2451 74.9307 22.2689C74.9307 22.4737 74.9307 22.7045 74.956 22.9608C74.9823 23.1911 75.0332 23.4219 75.0587 23.6527C75.0587 23.781 75.0843 23.9093 75.1099 24.0116C75.1354 24.1138 75.1352 24.2421 75.1352 24.3702C75.187 24.4729 75.2124 24.5754 75.2379 24.7037C75.2635 24.8316 75.2635 24.9598 75.2635 25.0365C75.8273 28.3425 77.2367 30.956 79.5428 32.8274C81.8495 34.6977 84.3355 35.8507 87.0255 36.2354C87.3846 36.3374 87.7945 36.3885 88.2045 36.4146C88.6145 36.4406 88.9989 36.4406 89.3576 36.4406C91.9207 36.4406 94.1753 35.7482 96.1999 34.39C98.1987 33.0066 99.1977 31.0592 99.1977 28.4968L99.326 28.2142H88.8706V20.8598H108.706Z" fill="#13101E"/>
</svg>
