<svg width="76" height="51" viewBox="0 0 76 51" fill="none" xmlns="http://www.w3.org/2000/svg">
<path d="M53.2648 2.13419C56.0178 0.782092 57.382 0.959526 57.4127 2.33003C57.4495 4.11037 57.1864 6.47789 56.9966 8.19096C55.9749 17.5018 54.268 25.11 54.1395 34.6698C58.6362 23.0287 62.4048 14.9378 67.2624 4.97295C68.8042 1.79772 69.7892 2.3912 71.0555 1.82831C75.9866 -0.367975 76.1702 0.977926 75.5276 3.66374C73.1356 13.6115 67.0115 44.9325 66.0756 49.7553C65.8063 51.1508 64.2892 50.5592 63.8976 50.0135C62.1418 47.5847 60.1596 47.5468 60.3797 45.9317C61.481 37.8908 65.4453 17.7165 66.4794 12.9629C61.2117 23.7622 55.7486 37.2626 52.9404 44.9173C52.3469 46.5428 51.264 46.4235 50.5912 45.2342C49.6428 43.5635 47.8014 42.7105 47.4954 40.7363C46.535 34.4594 48.5967 22.4952 48.8841 14.9261C46.015 23.1945 41.2002 39.2472 39.0894 46.4999C38.2208 49.5008 35.3208 49.0113 36.0916 46.0864C39.2973 33.9148 46.2046 12.3878 49.1901 4.64867C49.8939 2.82543 51.7353 2.88661 53.2648 2.13419Z" fill="#B00020"/>
<path d="M35.7798 0.64146C34.85 0.415147 32.1519 1.87121 30.4939 2.1587C29.9678 2.25047 29.4661 2.80716 29.2887 3.20492C26.6334 9.30445 24.2536 15.1189 22.1919 20.4157C19.5551 20.866 16.4718 21.4588 13.0212 22.2339C15.4928 15.8939 17.989 9.64082 20.4239 3.62695C21.6229 0.665845 18.4662 0.384455 17.2425 3.38225C15.6518 7.27941 12.6724 14.5811 9.37485 23.0917C6.95214 23.6857 4.38269 24.3647 1.69688 25.1406C-0.254799 25.704 -0.334231 26.224 0.510058 27.3944C0.974983 28.0461 1.93551 27.9804 2.37594 28.4448C3.51392 29.6482 4.20526 31.0877 6.24239 31.3056C4.42537 36.1662 2.60837 41.1786 0.962676 46.005C-0.07124 49.0346 2.87144 49.6543 4.00332 46.4484C5.82645 41.2807 7.74747 36.0504 9.72354 30.8356C11.3692 30.4532 15.3519 29.5954 19.0288 28.7976C16.1106 36.7961 14.1894 42.8706 13.4615 45.8275C13.327 46.3964 13.5533 46.7121 13.6756 46.944C14.6606 48.3773 15.5967 48.4361 16.8631 50.2084C17.2058 50.6917 18.356 50.9523 18.7474 49.7624C21.4515 41.5944 24.2352 33.9305 26.8291 27.0601C27.9058 26.8246 29.8452 26.3565 31.032 24.5854C33.1426 21.4419 33.7483 22.0795 34.2562 21.1238C34.8925 19.9242 34.4703 18.7978 32.219 19.0761C32.219 19.0761 31.3686 19.1367 29.7963 19.3159C32.2923 12.8891 34.4764 7.43801 36.0488 3.28406C36.5874 1.8773 36.6547 0.849484 35.7798 0.64146Z" fill="#B00020"/>
<path d="M32.0969 42.3249C32.6781 43.7938 34.4952 43.349 33.8038 41.5762C33.1002 39.77 31.3505 34.3331 30.8916 32.5815C30.2676 30.2212 32.9717 30.8667 31.6013 32.4097C30.4267 33.7366 29.6435 34.2682 27.4717 36.7913C25.3733 39.2268 25.9423 42.3874 28.1876 43.0855C30.7203 43.8734 32.9534 41.0825 34.336 39.0348C35.6758 37.052 34.3788 35.889 33.0268 37.0612C32.158 37.8149 31.1547 38.9724 30.139 39.5964C29.3131 40.0987 28.6646 39.5591 29.7659 38.0432C31.0445 36.288 32.4761 34.8172 33.5406 33.1586C35.7125 29.7785 31.4177 27.83 29.5701 30.0256C28.5789 31.196 28.8298 32.345 29.099 33.3311C29.5335 34.9107 31.1486 39.9531 32.0969 42.3249Z" fill="#B00020"/>
</svg>
