<svg width="117" height="19" viewBox="0 0 117 19" fill="none" xmlns="http://www.w3.org/2000/svg">
<path d="M2.90505 18.3226H1.27669C1.14082 18.3226 0.800903 18.3226 0.800903 18.1191C0.800903 17.9842 0.869091 17.9155 1.07264 17.8474C2.56717 17.3716 2.90454 16.5574 2.90454 15.4048V3.24656C2.90454 2.15962 2.56462 1.34494 1.07264 0.804014C0.869091 0.804014 0.800903 0.668148 0.800903 0.600469C0.800903 0.329246 1.14082 0.396924 1.27669 0.396924H14.7214C17.7771 0.396924 20.2903 2.83946 20.2903 5.89722C20.2903 8.95498 17.7771 11.3945 14.7214 11.3945H7.93058V15.5371C7.99877 16.6235 8.33767 17.369 9.76248 17.8458C9.96603 17.914 10.0337 17.9822 10.0337 18.1176C10.0337 18.3211 9.6943 18.3211 9.55843 18.3211H2.90505V18.3226ZM103.141 11.7354H106.332L103.141 6.30228L102.8 5.75881L99.9508 11.7354H103.141ZM103.141 0.32721H105.314L114.413 16.3564C114.685 16.7635 115.024 17.1706 115.431 17.3741C115.77 17.6464 116.177 17.715 116.517 17.8499C116.653 17.9186 116.789 17.9868 116.789 18.1221C116.789 18.3257 116.449 18.3257 116.313 18.3257H108.232C108.097 18.3257 107.688 18.3257 107.688 18.1221C107.688 17.9868 107.824 17.9186 107.961 17.8499C108.368 17.715 108.639 17.511 108.775 17.1039C108.912 16.6276 108.775 16.3574 108.436 15.7447C107.975 14.7647 107.5 13.7914 107.011 12.8249H99.4053L99.3381 12.9602C99.2694 13.2325 98.7275 14.1815 98.3204 15.2018C97.7779 16.2882 97.5739 16.5594 97.7097 17.1029C97.7784 17.51 98.1168 17.7135 98.5239 17.8494C98.6608 17.9181 98.7275 17.9863 98.7275 18.1211C98.7275 18.3247 98.387 18.3247 98.2517 18.3247H94.5161C94.3808 18.3247 94.0403 18.3247 94.0403 18.1211C94.0403 17.9863 94.109 17.9176 94.3121 17.8494C94.6525 17.714 95.0586 17.6458 95.3985 17.3736C95.8056 17.1701 96.146 16.763 96.4162 16.3559L96.892 15.3381L102.053 4.53703L101.305 3.24656C100.628 2.15962 99.9477 1.4808 99.2007 1.0732C98.8613 0.869658 98.5214 0.869658 98.183 0.733791C97.9794 0.665604 97.9107 0.597416 97.9794 0.46155C97.9794 0.325684 98.1148 0.393871 98.183 0.325684H103.141L103.141 0.32721ZM82.8372 18.2539H83.1089C95.6051 18.2539 95.4697 0.392853 83.1089 0.392853H72.8548C72.6513 0.392853 72.3124 0.324666 72.3124 0.596399C72.3124 0.664077 72.4478 0.799944 72.5831 0.799944C74.0771 1.27522 74.415 2.09042 74.4842 3.10967V15.5407C74.4171 16.6266 74.0771 17.3726 72.5831 17.8489C72.4478 17.9176 72.3124 17.9858 72.3124 18.1211C72.3124 18.3247 72.6518 18.3247 72.8548 18.3247H79.4421V18.256H82.8372V18.2539ZM82.8372 1.68435C83.7548 1.68796 84.6337 2.05396 85.2827 2.70263C85.9316 3.3513 86.298 4.23011 86.302 5.14767V13.433C86.2982 14.3506 85.9318 15.2294 85.2828 15.8781C84.6338 16.5269 83.7548 16.8928 82.8372 16.8963H79.4395V1.68435H82.8372ZM56.962 11.7354H60.1536L56.962 6.30228L56.6221 5.75881L53.7725 11.7354H56.962ZM56.962 0.32721H59.201L68.301 16.3564C68.5046 16.7635 68.8445 17.1706 69.2521 17.3741C69.591 17.6464 69.9996 17.715 70.4067 17.8499C70.5421 17.9186 70.6774 17.9868 70.6774 18.1221C70.6774 18.3257 70.2703 18.3257 70.135 18.3257H62.0568C61.9204 18.3257 61.581 18.3257 61.581 18.1221C61.581 17.9868 61.6482 17.9186 61.8517 17.8499C62.1921 17.715 62.5305 17.511 62.5992 17.1039C62.7346 16.6276 62.5992 16.3574 62.3275 15.7447C61.8517 14.727 61.3098 13.7754 60.8345 12.8249H53.2265L53.1588 12.9602C53.0911 13.2325 52.6153 14.1815 52.1411 15.2018C51.6658 16.2882 51.3946 16.5594 51.5304 17.1029C51.6663 17.51 51.9375 17.7135 52.3446 17.8494C52.48 17.9181 52.6158 17.9863 52.6158 18.1211C52.6158 18.3247 52.2764 18.3247 52.0734 18.3247H48.405C48.2691 18.3247 47.8615 18.3247 47.8615 18.1211C47.8615 17.9863 47.9974 17.9176 48.1333 17.8494C48.5404 17.714 48.8803 17.6458 49.2884 17.3736C49.6273 17.1701 50.0354 16.763 50.2384 16.3559L50.7137 15.3381L55.9433 4.53703L55.1973 3.24656C54.5185 2.15962 53.7725 1.4808 53.0921 1.0732C52.6851 0.869658 52.4128 0.869658 52.0052 0.733791C51.8688 0.665604 51.733 0.597416 51.8017 0.46155C51.8704 0.325684 52.0052 0.393871 52.0739 0.325684H56.9631L56.962 0.32721ZM34.5512 12.2112C36.1134 12.7536 38.015 12.889 39.5086 12.4147L45.4175 17.5084L45.8928 17.9155C45.9187 17.9422 45.9384 17.9743 45.9502 18.0095C45.9621 18.0447 45.966 18.0822 45.9614 18.1191C45.9614 18.3226 45.6215 18.3226 45.4852 18.3226H39.2378L34.5522 14.4517L30.7485 11.395V15.6063C30.8172 16.624 31.2243 17.3716 32.6501 17.8453C32.786 17.914 32.8537 17.9817 32.8537 18.117C32.8537 18.3206 32.5137 18.3206 32.3774 18.3206H24.1608C23.9572 18.3206 23.6173 18.3206 23.6173 18.117C23.6173 17.9817 23.7537 17.9135 23.8885 17.8453C25.5169 17.3029 25.7204 16.4877 25.7901 15.1992V3.4501C25.7219 2.22883 25.5184 1.34494 23.8885 0.804014C23.7526 0.804014 23.6173 0.668148 23.6173 0.600469C23.6173 0.329246 23.9572 0.396924 24.1608 0.396924H37.4034C38.1227 0.393844 38.8357 0.53249 39.5014 0.804944C40.1672 1.0774 40.7727 1.47833 41.2836 1.98483C41.7944 2.49134 42.2004 3.0935 42.4785 3.75693C42.7565 4.42037 42.9012 5.13208 42.9042 5.85142V5.89722C42.9093 7.34926 42.3378 8.74394 41.3151 9.77475C40.2924 10.8055 38.9022 11.3881 37.4502 11.3945H33.1249C33.3284 11.8016 33.8037 11.9379 34.2108 12.142C34.3472 12.142 34.4143 12.2112 34.5507 12.2112H34.5512ZM34.5512 10.106H35.0972C36.8625 10.106 38.357 8.2039 38.357 5.75881C38.354 3.38191 36.8599 1.4808 35.0972 1.4808H30.748V10.106H34.5512ZM11.801 1.48131H7.93058V10.1065H12.4131C14.2451 10.1065 15.6699 8.2044 15.6699 5.75932C15.6699 3.38293 14.2451 1.48131 12.4131 1.48131H11.801Z" fill="#13101E"/>
</svg>
