<svg width="111" height="47" viewBox="0 0 111 47" fill="none" xmlns="http://www.w3.org/2000/svg">
<path d="M104.41 45.2413L88.2074 0.631976L88.1962 0.602539H87.8765L84.5399 9.76965L78.4658 26.4584L78.4515 26.4453C76.3463 24.5877 73.3762 23.4264 69.6356 22.994L68.4947 22.8763L69.6265 22.7311C75.7951 21.6226 79.9417 17.7268 79.9417 13.0331C79.9417 6.59654 73.8878 2.10384 65.216 2.10384H47.1731V2.42968H52.416V35.6885L39.6829 0.631976L39.6717 0.602539H39.352L36.0154 9.76965L23.1464 45.1266L23.0672 45.1358C22.8472 45.1629 22.6297 45.1845 22.4145 45.2007C22.0907 45.2261 21.7689 45.2413 21.4461 45.2413H8.44306L33.1601 2.42967L33.3438 2.10789H3.11394V15.3515H3.4347C3.49154 8.90075 7.24832 2.42967 15.5486 2.42967H25.5622L0.658478 45.5621H34.2086V32.8737H33.8879C33.8442 38.4962 30.6569 43.8365 23.726 45.0424L23.5057 45.0799L28.7841 30.5715H43.5706L48.8987 45.2413H43.6427V45.5621H64.272V45.2413H58.9936V23.1128H65.0841C71.2821 23.1128 74.8369 25.8819 74.8369 30.7075V34.6328C74.8369 35.0652 74.8663 35.6976 74.8988 36.2265V36.2458L71.6252 45.2393H67.3487V45.5601H76.2011V45.2393H71.9703L74.9516 37.0497C74.9577 37.1289 74.9607 37.1766 74.9607 37.1766L75.0429 37.9145L75.1221 38.4028C75.6195 41.4226 76.7746 43.6426 78.5541 45.0008L78.8099 45.1865C80.1619 46.1265 81.8419 46.6025 83.806 46.6025C86.4077 46.6025 88.1424 45.9539 89.5747 44.4272L89.3869 44.2506C88.0673 45.4687 86.9599 45.962 85.5723 45.962C83.2082 45.962 81.9708 43.0945 81.9708 40.2665V34.7668C81.9834 33.4021 81.7697 32.0449 81.3384 30.7502L81.2795 30.5796V30.5735H92.0951L97.4232 45.2434H92.1672V45.5641H110.019V45.2434L104.41 45.2413ZM28.9018 30.2508L36.186 10.2386L43.4539 30.2508H28.9018ZM58.9967 22.791V2.42967H63.6457C69.8559 2.42967 73.1346 6.12148 73.1346 13.1021C73.1346 20.5264 71.2526 22.791 65.0841 22.791H58.9967ZM81.1537 30.2508L81.1222 30.1716C80.6416 29.001 79.9419 27.9329 79.0606 27.0249L78.7561 26.7203L78.7236 26.6899L84.7064 10.2386L91.9743 30.2508H81.1537Z" fill="#13101E"/>
</svg>
